# This file uses millimeters as units for non-parametric coordinates.

mtllib Ring.mtl
g default
v 0.123968 0.000000 -0.028295
v 0.114564 0.000000 -0.055171
v 0.099415 0.000000 -0.079281
v 0.079281 0.000000 -0.099415
v 0.055171 0.000000 -0.114564
v 0.028295 0.000000 -0.123968
v 0.000000 0.000000 -0.127157
v -0.028295 0.000000 -0.123968
v -0.055171 0.000000 -0.114564
v -0.079281 0.000000 -0.099415
v -0.099415 0.000000 -0.079281
v -0.114564 0.000000 -0.055171
v -0.123968 0.000000 -0.028295
v -0.127156 0.000000 -0.000000
v -0.123968 0.000000 0.028295
v -0.114564 0.000000 0.055171
v -0.099415 0.000000 0.079281
v -0.079281 0.000000 0.099415
v -0.055171 0.000000 0.114564
v -0.028295 0.000000 0.123968
v -0.000000 0.000000 0.127156
v 0.028295 0.000000 0.123969
v 0.055171 0.000000 0.114564
v 0.079281 0.000000 0.099415
v 0.099415 0.000000 0.079281
v 0.114564 0.000000 0.055171
v 0.123968 0.000000 0.028295
v 0.127156 0.000000 -0.000000
v 0.082646 0.000000 -0.018863
v 0.076376 0.000000 -0.036781
v 0.066277 0.000000 -0.052854
v 0.052854 0.000000 -0.066277
v 0.036781 0.000000 -0.076376
v 0.018863 0.000000 -0.082646
v 0.000000 0.000000 -0.084771
v -0.018863 0.000000 -0.082646
v -0.036781 0.000000 -0.076376
v -0.052854 0.000000 -0.066277
v -0.066277 0.000000 -0.052854
v -0.076376 0.000000 -0.036781
v -0.082646 0.000000 -0.018863
v -0.084771 0.000000 -0.000000
v -0.082646 0.000000 0.018863
v -0.076376 0.000000 0.036781
v -0.066277 0.000000 0.052854
v -0.052854 0.000000 0.066277
v -0.036781 0.000000 0.076376
v -0.018863 0.000000 0.082646
v -0.000000 0.000000 0.084771
v 0.018863 0.000000 0.082646
v 0.036781 0.000000 0.076376
v 0.052854 0.000000 0.066277
v 0.066277 0.000000 0.052854
v 0.076376 0.000000 0.036781
v 0.082646 0.000000 0.018863
v 0.084771 0.000000 -0.000000
vt 0.237420 0.543202
vt 0.203781 0.543202
vt 0.203846 0.459094
vt 0.237418 0.459094
vt 0.170039 0.543202
vt 0.170280 0.459094
vt 0.136266 0.543202
vt 0.136874 0.459094
vt 0.102140 0.543202
vt 0.103772 0.459094
vt 0.066676 0.543202
vt 0.071460 0.459094
vt 0.027270 0.543202
vt 0.968091 0.459094
vt 0.942933 0.543202
vt 0.938098 0.459094
vt 0.907454 0.543202
vt 0.905806 0.459094
vt 0.873370 0.543202
vt 0.872814 0.459094
vt 0.839764 0.543202
vt 0.839556 0.459094
vt 0.806327 0.543202
vt 0.806238 0.459094
vt 0.772925 0.543202
vt 0.772887 0.459094
vt 0.739531 0.543202
vt 0.739505 0.459094
vt 0.706126 0.543202
vt 0.706133 0.459094
vt 0.672742 0.543202
vt 0.672729 0.459094
vt 0.639232 0.543202
vt 0.639250 0.459094
vt 0.605778 0.543202
vt 0.605780 0.459094
vt 0.572288 0.543202
vt 0.572295 0.459094
vt 0.538809 0.543202
vt 0.538811 0.459094
vt 0.505321 0.543202
vt 0.505358 0.459094
vt 0.471902 0.543202
vt 0.471912 0.459094
vt 0.438459 0.543202
vt 0.438397 0.459094
vt 0.404923 0.543202
vt 0.404924 0.459094
vt 0.371464 0.543202
vt 0.371484 0.459094
vt 0.338074 0.543202
vt 0.338015 0.459094
vt 0.304579 0.543202
vt 0.304544 0.459094
vt 0.271016 0.543202
vt 0.270994 0.459094
vt 0.982355 0.543202
vt 0.041550 0.459094
vn 0.000000 1.000000 0.000000
vn 0.000000 1.000000 0.000000
vn 0.000000 1.000000 0.000000
vn 0.000000 1.000000 0.000000
vn 0.000000 1.000000 0.000000
vn 0.000000 1.000000 0.000000
vn 0.000000 1.000000 0.000000
vn 0.000000 1.000000 0.000000
vn 0.000000 1.000000 0.000000
vn 0.000000 1.000000 0.000000
vn 0.000000 1.000000 0.000000
vn 0.000000 1.000000 0.000000
vn 0.000000 1.000000 0.000000
vn 0.000000 1.000000 0.000000
vn 0.000000 1.000000 0.000000
vn 0.000000 1.000000 0.000000
vn 0.000000 1.000000 0.000000
vn 0.000000 1.000000 0.000000
vn 0.000000 1.000000 0.000000
vn 0.000000 1.000000 0.000000
vn 0.000000 1.000000 0.000000
vn 0.000000 1.000000 0.000000
vn 0.000000 1.000000 0.000000
vn 0.000000 1.000000 0.000000
vn 0.000000 1.000000 0.000000
vn 0.000000 1.000000 0.000000
vn 0.000000 1.000000 0.000000
vn 0.000000 1.000000 0.000000
vn 0.000000 1.000000 0.000000
vn 0.000000 1.000000 0.000000
vn 0.000000 1.000000 0.000000
vn 0.000000 1.000000 0.000000
vn 0.000000 1.000000 0.000000
vn 0.000000 1.000000 0.000000
vn 0.000000 1.000000 0.000000
vn 0.000000 1.000000 0.000000
vn 0.000000 1.000000 0.000000
vn 0.000000 1.000000 0.000000
vn 0.000000 1.000000 0.000000
vn 0.000000 1.000000 0.000000
vn 0.000000 1.000000 0.000000
vn 0.000000 1.000000 0.000000
vn 0.000000 1.000000 0.000000
vn 0.000000 1.000000 0.000000
vn 0.000000 1.000000 0.000000
vn 0.000000 1.000000 0.000000
vn 0.000000 1.000000 0.000000
vn 0.000000 1.000000 0.000000
vn 0.000000 1.000000 0.000000
vn 0.000000 1.000000 0.000000
vn 0.000000 1.000000 0.000000
vn 0.000000 1.000000 0.000000
vn 0.000000 1.000000 0.000000
vn 0.000000 1.000000 0.000000
vn 0.000000 1.000000 0.000000
vn 0.000000 1.000000 0.000000
s 1
g Ring polySurface2 pCylinder2
usemtl initialShadingGroup
f 1/1/1 2/2/2 30/3/3 29/4/4
f 2/2/2 3/5/5 31/6/6 30/3/3
f 3/5/5 4/7/7 32/8/8 31/6/6
f 4/7/7 5/9/9 33/10/10 32/8/8
f 5/9/9 6/11/11 34/12/12 33/10/10
f 6/11/11 7/13/13 35/58/14 34/12/12
f 7/57/13 8/15/15 36/16/16 35/14/14
f 8/15/15 9/17/17 37/18/18 36/16/16
f 9/17/17 10/19/19 38/20/20 37/18/18
f 10/19/19 11/21/21 39/22/22 38/20/20
f 11/21/21 12/23/23 40/24/24 39/22/22
f 12/23/23 13/25/25 41/26/26 40/24/24
f 13/25/25 14/27/27 42/28/28 41/26/26
f 14/27/27 15/29/29 43/30/30 42/28/28
f 15/29/29 16/31/31 44/32/32 43/30/30
f 16/31/31 17/33/33 45/34/34 44/32/32
f 17/33/33 18/35/35 46/36/36 45/34/34
f 18/35/35 19/37/37 47/38/38 46/36/36
f 19/37/37 20/39/39 48/40/40 47/38/38
f 20/39/39 21/41/41 49/42/42 48/40/40
f 21/41/41 22/43/43 50/44/44 49/42/42
f 22/43/43 23/45/45 51/46/46 50/44/44
f 23/45/45 24/47/47 52/48/48 51/46/46
f 24/47/47 25/49/49 53/50/50 52/48/48
f 25/49/49 26/51/51 54/52/52 53/50/50
f 26/51/51 27/53/53 55/54/54 54/52/52
f 27/53/53 28/55/55 56/56/56 55/54/54
f 28/55/55 1/1/1 29/4/4 56/56/56
