# This file uses millimeters as units for non-parametric coordinates.

mtllib Ring.mtl
g Ring:default1
v 0.123968 0.000000 -0.028295
v 0.114564 0.000000 -0.055171
v 0.099415 0.000000 -0.079281
v 0.079281 0.000000 -0.099415
v 0.055171 0.000000 -0.114564
v 0.028295 0.000000 -0.123968
v 0.000000 0.000000 -0.127157
v -0.028295 0.000000 -0.123968
v -0.055171 0.000000 -0.114564
v -0.079281 0.000000 -0.099415
v -0.099415 0.000000 -0.079281
v -0.114564 0.000000 -0.055171
v -0.123968 0.000000 -0.028295
v -0.127156 0.000000 0.000000
v -0.123968 0.000000 0.028295
v -0.114564 0.000000 0.055171
v -0.099415 0.000000 0.079281
v -0.079281 0.000000 0.099415
v -0.055171 0.000000 0.114564
v -0.028295 0.000000 0.123968
v 0.000000 0.000000 0.127156
v 0.028295 0.000000 0.123969
v 0.055171 0.000000 0.114564
v 0.079281 0.000000 0.099415
v 0.099415 0.000000 0.079281
v 0.114564 0.000000 0.055171
v 0.123968 0.000000 0.028295
v 0.127156 0.000000 0.000000
v 0.082646 0.000000 -0.018863
v 0.076376 0.000000 -0.036781
v 0.066277 0.000000 -0.052854
v 0.052854 0.000000 -0.066277
v 0.036781 0.000000 -0.076376
v 0.018863 0.000000 -0.082646
v 0.000000 0.000000 -0.084771
v -0.018863 0.000000 -0.082646
v -0.036781 0.000000 -0.076376
v -0.052854 0.000000 -0.066277
v -0.066277 0.000000 -0.052854
v -0.076376 0.000000 -0.036781
v -0.082646 0.000000 -0.018863
v -0.084771 0.000000 0.000000
v -0.082646 0.000000 0.018863
v -0.076376 0.000000 0.036781
v -0.066277 0.000000 0.052854
v -0.052854 0.000000 0.066277
v -0.036781 0.000000 0.076376
v -0.018863 0.000000 0.082646
v 0.000000 0.000000 0.084771
v 0.018863 0.000000 0.082646
v 0.036781 0.000000 0.076376
v 0.052854 0.000000 0.066277
v 0.066277 0.000000 0.052854
v 0.076376 0.000000 0.036781
v 0.082646 0.000000 0.018863
v 0.084771 0.000000 0.000000
vt 0.229684 0.724041
vt 0.195071 0.724041
vt 0.195138 0.275959
vt 0.229681 0.275959
vt 0.160353 0.724041
vt 0.160601 0.275959
vt 0.125603 0.724041
vt 0.126228 0.275959
vt 0.084065 0.724041
vt 0.085744 0.275959
vt 0.047575 0.724041
vt 0.043932 0.275959
vt 0.000000 0.724041
vt 1.000000 0.275959
vt 0.955609 0.724041
vt 0.959200 0.275959
vt 0.919104 0.724041
vt 0.925974 0.275959
vt 0.884033 0.724041
vt 0.883461 0.275959
vt 0.849455 0.724041
vt 0.849241 0.275959
vt 0.815051 0.724041
vt 0.814959 0.275959
vt 0.780682 0.724041
vt 0.780643 0.275959
vt 0.746322 0.724041
vt 0.746295 0.275959
vt 0.711951 0.724041
vt 0.711958 0.275959
vt 0.677601 0.724041
vt 0.677587 0.275959
vt 0.643121 0.724041
vt 0.643140 0.275959
vt 0.608699 0.724041
vt 0.608701 0.275959
vt 0.574240 0.724041
vt 0.574247 0.275959
vt 0.539793 0.724041
vt 0.539795 0.275959
vt 0.505336 0.724041
vt 0.505374 0.275959
vt 0.470950 0.724041
vt 0.470960 0.275959
vt 0.436539 0.724041
vt 0.436475 0.275959
vt 0.402033 0.724041
vt 0.402034 0.275959
vt 0.367606 0.724041
vt 0.367626 0.275959
vt 0.333250 0.724041
vt 0.333189 0.275959
vt 0.298786 0.724041
vt 0.298750 0.275959
vt 0.264252 0.724041
vt 0.264229 0.275959
vt 1.000000 0.724041
vt 0.000000 0.275959
vn 0.000000 1.000000 0.000000
vn 0.000000 1.000000 0.000000
vn 0.000000 1.000000 0.000000
vn 0.000000 1.000000 0.000000
vn 0.000000 1.000000 0.000000
vn 0.000000 1.000000 0.000000
vn 0.000000 1.000000 0.000000
vn 0.000000 1.000000 0.000000
vn 0.000000 1.000000 0.000000
vn 0.000000 1.000000 0.000000
vn 0.000000 1.000000 0.000000
vn 0.000000 1.000000 0.000000
vn 0.000000 1.000000 0.000000
vn 0.000000 1.000000 0.000000
vn 0.000000 1.000000 0.000000
vn 0.000000 1.000000 0.000000
vn 0.000000 1.000000 0.000000
vn 0.000000 1.000000 0.000000
vn 0.000000 1.000000 0.000000
vn 0.000000 1.000000 0.000000
vn 0.000000 1.000000 0.000000
vn 0.000000 1.000000 0.000000
vn 0.000000 1.000000 0.000000
vn 0.000000 1.000000 0.000000
vn 0.000000 1.000000 0.000000
vn 0.000000 1.000000 0.000000
vn 0.000000 1.000000 0.000000
vn 0.000000 1.000000 0.000000
vn 0.000000 1.000000 0.000000
vn 0.000000 1.000000 0.000000
vn 0.000000 1.000000 0.000000
vn 0.000000 1.000000 0.000000
vn 0.000000 1.000000 0.000000
vn 0.000000 1.000000 0.000000
vn 0.000000 1.000000 0.000000
vn 0.000000 1.000000 0.000000
vn 0.000000 1.000000 0.000000
vn 0.000000 1.000000 0.000000
vn 0.000000 1.000000 0.000000
vn 0.000000 1.000000 0.000000
vn 0.000000 1.000000 0.000000
vn 0.000000 1.000000 0.000000
vn 0.000000 1.000000 0.000000
vn 0.000000 1.000000 0.000000
vn 0.000000 1.000000 0.000000
vn 0.000000 1.000000 0.000000
vn 0.000000 1.000000 0.000000
vn 0.000000 1.000000 0.000000
vn 0.000000 1.000000 0.000000
vn 0.000000 1.000000 0.000000
vn 0.000000 1.000000 0.000000
vn 0.000000 1.000000 0.000000
vn 0.000000 1.000000 0.000000
vn 0.000000 1.000000 0.000000
vn 0.000000 1.000000 0.000000
vn 0.000000 1.000000 0.000000
vn 0.000000 1.000000 0.000000
vn 0.000000 1.000000 0.000000
vn 0.000000 1.000000 0.000000
vn 0.000000 1.000000 0.000000
vn 0.000000 1.000000 0.000000
vn 0.000000 1.000000 0.000000
vn 0.000000 1.000000 0.000000
vn 0.000000 1.000000 0.000000
vn 0.000000 1.000000 0.000000
vn 0.000000 1.000000 0.000000
vn 0.000000 1.000000 0.000000
vn 0.000000 1.000000 0.000000
vn 0.000000 1.000000 0.000000
vn 0.000000 1.000000 0.000000
vn 0.000000 1.000000 0.000000
vn 0.000000 1.000000 0.000000
vn 0.000000 1.000000 0.000000
vn 0.000000 1.000000 0.000000
vn 0.000000 1.000000 0.000000
vn 0.000000 1.000000 0.000000
vn 0.000000 1.000000 0.000000
vn 0.000000 1.000000 0.000000
vn 0.000000 1.000000 0.000000
vn 0.000000 1.000000 0.000000
vn 0.000000 1.000000 0.000000
vn 0.000000 1.000000 0.000000
vn 0.000000 1.000000 0.000000
vn 0.000000 1.000000 0.000000
vn 0.000000 1.000000 0.000000
vn 0.000000 1.000000 0.000000
vn 0.000000 1.000000 0.000000
vn 0.000000 1.000000 0.000000
vn 0.000000 1.000000 0.000000
vn 0.000000 1.000000 0.000000
vn 0.000000 1.000000 0.000000
vn 0.000000 1.000000 0.000000
vn 0.000000 1.000000 0.000000
vn 0.000000 1.000000 0.000000
vn 0.000000 1.000000 0.000000
vn 0.000000 1.000000 0.000000
vn 0.000000 1.000000 0.000000
vn 0.000000 1.000000 0.000000
vn 0.000000 1.000000 0.000000
vn 0.000000 1.000000 0.000000
vn 0.000000 1.000000 0.000000
vn 0.000000 1.000000 0.000000
vn 0.000000 1.000000 0.000000
vn 0.000000 1.000000 0.000000
vn 0.000000 1.000000 0.000000
vn 0.000000 1.000000 0.000000
vn 0.000000 1.000000 0.000000
vn 0.000000 1.000000 0.000000
vn 0.000000 1.000000 0.000000
vn 0.000000 1.000000 0.000000
vn 0.000000 1.000000 0.000000
vn 0.000000 1.000000 0.000000
s off
g Ring:Ring Ring:pCylinder2 Ring:polySurface2 PingRing
usemtl Ring:lambert3SG
f 1/1/1 2/2/2 30/3/3 29/4/4
f 2/2/5 3/5/6 31/6/7 30/3/8
f 3/5/9 4/7/10 32/8/11 31/6/12
f 4/7/13 5/9/14 33/10/15 32/8/16
f 5/9/17 6/11/18 34/12/19 33/10/20
f 6/11/21 7/13/22 35/58/23 34/12/24
f 7/57/25 8/15/26 36/16/27 35/14/28
f 8/15/29 9/17/30 37/18/31 36/16/32
f 9/17/33 10/19/34 38/20/35 37/18/36
f 10/19/37 11/21/38 39/22/39 38/20/40
f 11/21/41 12/23/42 40/24/43 39/22/44
f 12/23/45 13/25/46 41/26/47 40/24/48
f 13/25/49 14/27/50 42/28/51 41/26/52
f 14/27/53 15/29/54 43/30/55 42/28/56
f 15/29/57 16/31/58 44/32/59 43/30/60
f 16/31/61 17/33/62 45/34/63 44/32/64
f 17/33/65 18/35/66 46/36/67 45/34/68
f 18/35/69 19/37/70 47/38/71 46/36/72
f 19/37/73 20/39/74 48/40/75 47/38/76
f 20/39/77 21/41/78 49/42/79 48/40/80
f 21/41/81 22/43/82 50/44/83 49/42/84
f 22/43/85 23/45/86 51/46/87 50/44/88
f 23/45/89 24/47/90 52/48/91 51/46/92
f 24/47/93 25/49/94 53/50/95 52/48/96
f 25/49/97 26/51/98 54/52/99 53/50/100
f 26/51/101 27/53/102 55/54/103 54/52/104
f 27/53/105 28/55/106 56/56/107 55/54/108
f 28/55/109 1/1/110 29/4/111 56/56/112
